<svg width="56" height="56" viewBox="0 0 56 56" fill="none" xmlns="http://www.w3.org/2000/svg">
<g clip-path="url(#clip0)">
<path d="M21.6524 0.000244141C13.6314 0.000244141 7.10566 6.526 7.10566 14.547V41.7805C7.10566 43.8762 8.55061 45.6402 10.4963 46.13V49.658C10.4963 51.9488 8.63264 53.8124 6.34189 53.8124C4.05114 53.8124 2.1875 51.9487 2.1875 49.6579V14.5455C2.1875 13.9414 1.69783 13.4517 1.09375 13.4517C0.489672 13.4517 0 13.9414 0 14.5455V49.658C0 53.155 2.84495 55.9999 6.34189 55.9999C9.83883 55.9999 12.6838 53.155 12.6838 49.658V46.1301C14.6295 45.6406 16.0744 43.8764 16.0744 41.7805V27.981C17.7931 28.6973 19.6773 29.0938 21.6525 29.0938C25.7556 29.0938 29.0935 25.7557 29.0935 21.6528V7.44124C29.0935 3.33826 25.7554 0.000244141 21.6524 0.000244141ZM13.8869 41.7805C13.8869 43.0474 12.8567 44.078 11.5904 44.078C10.3236 44.078 9.29316 43.0474 9.29316 41.7805V22.2099C10.4556 24.0781 12.0292 25.6646 13.8869 26.8422V41.7805ZM20.5588 26.8573C14.2543 26.3018 9.29327 20.9932 9.29327 14.547C9.29327 8.10067 14.2543 2.79215 20.5588 2.23663V26.8573ZM26.9061 9.84388H26.1952C25.5911 9.84388 25.1015 10.3336 25.1015 10.9376C25.1015 11.5417 25.5911 12.0314 26.1952 12.0314H26.9061V15.8595H26.1952C25.5911 15.8595 25.1015 16.3492 25.1015 16.9533C25.1015 17.5573 25.5911 18.047 26.1952 18.047H26.9061V21.6528C26.9061 21.7273 26.9043 21.8014 26.9012 21.8751H25.7576C25.1535 21.8751 24.6638 22.3648 24.6638 22.9689C24.6638 23.573 25.1535 24.0626 25.7576 24.0626H26.3199C25.6065 25.4385 24.3027 26.4609 22.7462 26.7919V2.30226C23.8035 2.52703 24.7436 3.07149 25.4618 3.82837H25.2929C24.6888 3.82837 24.1991 4.31804 24.1991 4.92212C24.1991 5.5262 24.6888 6.01587 25.2929 6.01587H26.7086C26.8367 6.46945 26.9061 6.94742 26.9061 7.44135V9.84388Z" fill="#232630"/>
<path d="M32.6545 3.9889C32.4742 3.9423 32.2935 3.8968 32.1124 3.8524C31.5252 3.70857 30.9335 4.06743 30.7896 4.65423C30.6456 5.2408 31.0046 5.83318 31.5913 5.97701C31.7638 6.01933 31.9359 6.06265 32.1077 6.10694C32.1993 6.13057 32.2913 6.14194 32.3819 6.14194C32.8687 6.14194 33.3128 5.81447 33.4402 5.32141C33.5911 4.73648 33.2395 4.13995 32.6545 3.9889Z" fill="#232630"/>
<path d="M40.042 6.58201C39.8722 6.50567 39.7018 6.43031 39.5307 6.35582C38.9771 6.11476 38.3324 6.36818 38.0912 6.92195C37.85 7.47571 38.1036 8.12048 38.6573 8.36154C38.8204 8.43252 38.9831 8.50449 39.1452 8.57734C39.2907 8.64274 39.443 8.6737 39.593 8.6737C40.0103 8.6737 40.409 8.4334 40.5912 8.02806C40.8388 7.47713 40.593 6.82963 40.042 6.58201Z" fill="#232630"/>
<path d="M43.5419 8.3388C43.3789 8.24824 43.2153 8.15866 43.0511 8.06996C42.5195 7.78285 41.8561 7.98114 41.569 8.51271C41.2821 9.04427 41.4803 9.70785 42.0118 9.99485C42.1684 10.0793 42.3241 10.1647 42.4794 10.251C42.6477 10.3445 42.83 10.3889 43.0097 10.3889C43.394 10.3889 43.7669 10.186 43.9667 9.82619C44.2602 9.29813 44.07 8.63225 43.5419 8.3388Z" fill="#232630"/>
<path d="M46.8859 10.3847C46.731 10.2805 46.5754 10.1774 46.4191 10.0752C45.9137 9.74471 45.2358 9.88624 44.9052 10.3919C44.5744 10.8974 44.7162 11.5752 45.2218 11.9058C45.3706 12.0032 45.5187 12.1014 45.6661 12.2004C45.8532 12.3262 46.0653 12.3863 46.275 12.3863C46.6271 12.3863 46.9728 12.2167 47.1839 11.9025C47.5208 11.4011 47.3873 10.7215 46.8859 10.3847Z" fill="#232630"/>
<path d="M55.7219 18.0945C55.5978 17.9552 55.4729 17.8168 55.3474 17.6789C54.9404 17.2325 54.2486 17.2005 53.8022 17.6075C53.3558 18.0145 53.3238 18.7062 53.7308 19.1527C53.8507 19.2844 53.97 19.4167 54.0886 19.5497C54.3047 19.7922 54.6044 19.9159 54.9056 19.9159C55.1645 19.9159 55.4244 19.8246 55.6328 19.6387C56.0839 19.2369 56.1237 18.5455 55.7219 18.0945Z" fill="#232630"/>
<path d="M52.9955 15.2802C52.8602 15.1518 52.724 15.024 52.5871 14.8972C52.144 14.4866 51.452 14.513 51.0414 14.9561C50.6309 15.3992 50.6573 16.0912 51.1004 16.5018C51.2311 16.6225 51.3608 16.7443 51.4897 16.8668C51.7013 17.0676 51.9721 17.1672 52.2425 17.1672C52.5319 17.1672 52.821 17.053 53.036 16.8264C53.4518 16.3883 53.4338 15.696 52.9955 15.2802Z" fill="#232630"/>
<path d="M36.4023 5.12861C36.2267 5.06693 36.0505 5.00622 35.8737 4.94661C35.3012 4.75357 34.6807 5.06069 34.4875 5.63294C34.2942 6.20519 34.6014 6.8259 35.1738 7.01916C35.3422 7.07604 35.5102 7.13379 35.6778 7.19263C35.7977 7.23474 35.9199 7.25465 36.0401 7.25465C36.4915 7.25465 36.9141 6.9729 37.0721 6.52282C37.2722 5.95286 36.9723 5.32866 36.4023 5.12861Z" fill="#232630"/>
<path d="M50.0422 12.7038C49.8966 12.5873 49.7505 12.4715 49.6035 12.3567C49.1277 11.9847 48.4403 12.0687 48.0681 12.5445C47.6961 13.0203 47.7801 13.7078 48.256 14.0799C48.3962 14.1895 48.5358 14.2999 48.6747 14.4113C48.8765 14.5729 49.1179 14.6513 49.3577 14.6513C49.6783 14.6513 49.996 14.511 50.2122 14.2413C50.5898 13.7698 50.5137 13.0815 50.0422 12.7038Z" fill="#232630"/>
<path d="M51.4144 23.3957C51.2936 23.2524 51.1719 23.11 51.0492 22.9683C50.6535 22.512 49.9628 22.4625 49.5063 22.8581C49.0499 23.2537 49.0005 23.9445 49.3961 24.4009C49.5123 24.5349 49.6274 24.6697 49.7416 24.8052C49.958 25.062 50.2673 25.1942 50.5785 25.1942C50.8274 25.1942 51.0776 25.1098 51.2827 24.9369C51.7447 24.5476 51.8037 23.8576 51.4144 23.3957Z" fill="#232630"/>
<path d="M39.1917 13.6403C39.0254 13.5546 38.8585 13.47 38.6908 13.3866C38.15 13.1174 37.4934 13.3375 37.2242 13.8782C36.9551 14.4189 37.1751 15.0754 37.7159 15.3447C37.8744 15.4237 38.0322 15.5035 38.1894 15.5846C38.3497 15.6673 38.5209 15.7064 38.6896 15.7064C39.086 15.7064 39.4686 15.4902 39.6628 15.1136C39.9395 14.5767 39.7287 13.9171 39.1917 13.6403Z" fill="#232630"/>
<path d="M55.8665 29.8771C55.7761 29.7123 55.6844 29.5484 55.5917 29.3852C55.2932 28.8601 54.6255 28.6766 54.1002 28.9749C53.5751 29.2735 53.3915 29.9412 53.69 30.4664C53.7775 30.6204 53.864 30.775 53.9493 30.9304C54.1483 31.2927 54.5226 31.4977 54.9088 31.4977C55.0869 31.4977 55.2675 31.4542 55.4345 31.3623C55.9641 31.0714 56.1575 30.4064 55.8665 29.8771Z" fill="#232630"/>
<path d="M53.8006 26.5261C53.6944 26.3715 53.5872 26.2177 53.4789 26.0646C53.1301 25.5714 52.4475 25.4544 51.9545 25.8032C51.4613 26.1519 51.3442 26.8346 51.693 27.3276C51.7955 27.4724 51.8969 27.6178 51.9972 27.764C52.2092 28.0729 52.5516 28.2389 52.8999 28.2389C53.1132 28.2389 53.3287 28.1767 53.5179 28.0469C54.016 27.705 54.1425 27.0241 53.8006 26.5261Z" fill="#232630"/>
<path d="M42.5946 15.6135C42.4375 15.5116 42.2797 15.4109 42.1211 15.3113C41.6097 14.99 40.9345 15.144 40.613 15.6556C40.2917 16.1671 40.4459 16.8423 40.9574 17.1636C41.1073 17.2578 41.2565 17.353 41.405 17.4492C41.5888 17.5683 41.7949 17.6252 41.9988 17.6252C42.3571 17.6252 42.7083 17.4493 42.9177 17.1261C43.2461 16.6192 43.1015 15.9419 42.5946 15.6135Z" fill="#232630"/>
<path d="M35.6108 12.0141C35.4369 11.9453 35.2624 11.8777 35.0871 11.8113C34.5223 11.5971 33.8908 11.8816 33.6767 12.4465C33.4627 13.0115 33.7471 13.6429 34.312 13.8569C34.4774 13.9196 34.642 13.9834 34.8061 14.0483C34.9382 14.1006 35.0742 14.1253 35.2081 14.1253C35.6436 14.1253 36.0555 13.8633 36.2255 13.4337C36.4478 12.8718 36.1725 12.2362 35.6108 12.0141Z" fill="#232630"/>
<path d="M48.7356 20.5157C48.6014 20.3851 48.4664 20.2554 48.3304 20.1265C47.8919 19.711 47.1997 19.7296 46.7842 20.1682C46.3687 20.6067 46.3874 21.299 46.8259 21.7144C46.9545 21.8364 47.0825 21.9591 47.2094 22.0828C47.4221 22.2898 47.6974 22.393 47.9724 22.393C48.2573 22.393 48.5417 22.2824 48.7561 22.0623C49.1774 21.6294 49.1684 20.937 48.7356 20.5157Z" fill="#232630"/>
<path d="M45.7878 17.913C45.6414 17.7962 45.4942 17.6804 45.3462 17.5656C44.869 17.1954 44.1817 17.2822 43.8116 17.7596C43.4413 18.2369 43.5282 18.924 44.0055 19.2941C44.1455 19.4027 44.2846 19.5122 44.4231 19.6227C44.6246 19.7836 44.8654 19.8617 45.1047 19.8617C45.426 19.8617 45.7442 19.7208 45.9602 19.4502C46.337 18.9781 46.2598 18.2899 45.7878 17.913Z" fill="#232630"/>
<path d="M31.8871 10.7521C31.7075 10.7012 31.5274 10.6514 31.3469 10.6027C30.7637 10.4459 30.1634 10.7914 30.0066 11.3748C29.8496 11.9581 30.1954 12.5583 30.7787 12.7151C30.9495 12.761 31.1197 12.8082 31.2896 12.8564C31.3895 12.8847 31.49 12.8983 31.5889 12.8983C32.0655 12.8983 32.5038 12.5843 32.6406 12.103C32.8054 11.522 32.4682 10.9171 31.8871 10.7521Z" fill="#232630"/>
<path d="M47.3135 27.5003C47.1975 27.3506 47.0803 27.2021 46.9621 27.0549C46.5838 26.584 45.8954 26.5089 45.4244 26.8872C44.9535 27.2655 44.8784 27.9539 45.2567 28.4249C45.3671 28.5624 45.4763 28.7009 45.5845 28.8404C45.8001 29.1185 46.1232 29.2641 46.4498 29.2641C46.6839 29.2641 46.9198 29.1893 47.1192 29.0348C47.5966 28.6648 47.6837 27.9777 47.3135 27.5003Z" fill="#232630"/>
<path d="M41.7234 21.8932C41.5737 21.7771 41.4229 21.6625 41.2713 21.5492C40.7871 21.188 40.1019 21.2876 39.7407 21.7717C39.3794 22.2559 39.479 22.9412 39.9631 23.3024C40.1039 23.4074 40.2437 23.5138 40.3826 23.6216C40.582 23.7762 40.818 23.8512 41.0523 23.8512C41.3786 23.8512 41.7017 23.7056 41.9172 23.4278C42.2874 22.9506 42.2007 22.2635 41.7234 21.8932Z" fill="#232630"/>
<path d="M44.6968 24.5226C44.5632 24.3881 44.4285 24.2552 44.2925 24.1236C43.8588 23.703 43.1664 23.7138 42.7459 24.1475C42.3255 24.5812 42.3362 25.2736 42.7699 25.6941C42.8962 25.8166 43.0215 25.9403 43.1458 26.0652C43.3595 26.28 43.6404 26.3876 43.9213 26.3876C44.2002 26.3876 44.4792 26.2815 44.6926 26.0693C45.1209 25.6433 45.1228 24.9509 44.6968 24.5226Z" fill="#232630"/>
<path d="M53.7902 41.7843C53.753 41.5996 53.7144 41.4156 53.6743 41.232C53.5453 40.6418 52.9625 40.2679 52.3724 40.3967C51.7822 40.5256 51.4083 41.1084 51.5371 41.6986C51.5747 41.8708 51.6109 42.0435 51.6459 42.2168C51.7507 42.7361 52.2069 43.0945 52.7169 43.0945C52.7887 43.0945 52.8614 43.0874 52.9344 43.0727C53.5265 42.9533 53.9097 42.3764 53.7902 41.7843Z" fill="#232630"/>
<path d="M51.3796 34.2772C51.3017 34.1045 51.2225 33.9328 51.142 33.762C50.8844 33.2156 50.2328 32.9812 49.6862 33.239C49.1398 33.4966 48.9057 34.1484 49.1633 34.6948C49.2385 34.8545 49.3126 35.0151 49.3853 35.1764C49.5679 35.5812 49.9661 35.8209 50.383 35.8209C50.5333 35.8209 50.6861 35.7897 50.8319 35.7239C51.3827 35.4756 51.6278 34.8278 51.3796 34.2772Z" fill="#232630"/>
<path d="M52.795 37.964C52.7374 37.7845 52.6786 37.6059 52.6183 37.4279C52.4246 36.8558 51.8038 36.5489 51.2316 36.7427C50.6594 36.9364 50.3526 37.5573 50.5463 38.1294C50.6029 38.2962 50.658 38.4639 50.712 38.6321C50.8609 39.0963 51.2906 39.3922 51.7533 39.3922C51.8639 39.3921 51.9765 39.3751 52.0875 39.3395C52.6627 39.1549 52.9795 38.5392 52.795 37.964Z" fill="#232630"/>
<path d="M38.4313 19.6721C38.2676 19.577 38.1029 19.4834 37.9374 19.3916C37.4092 19.0982 36.7433 19.2886 36.4502 19.8168C36.157 20.3449 36.3474 21.0108 36.8755 21.304C37.0287 21.3891 37.1811 21.4756 37.3328 21.5638C37.5057 21.6642 37.6946 21.7118 37.8811 21.7118C38.2581 21.7118 38.6249 21.5167 38.8279 21.1673C39.1312 20.6448 38.9537 19.9755 38.4313 19.6721Z" fill="#232630"/>
<path d="M49.5447 30.7703C49.4474 30.608 49.3489 30.4468 49.249 30.2864C48.93 29.7737 48.2556 29.6166 47.7425 29.9358C47.2297 30.2549 47.0727 30.9295 47.3918 31.4423C47.4851 31.5923 47.5772 31.7431 47.6682 31.8948C47.8733 32.2368 48.2357 32.4265 48.6074 32.4265C48.7988 32.4265 48.9927 32.3763 49.1686 32.2707C49.6869 31.9601 49.8552 31.2884 49.5447 30.7703Z" fill="#232630"/>
<path d="M34.8625 17.9169C34.6873 17.8455 34.5113 17.7757 34.3345 17.7077C33.7708 17.4907 33.1379 17.7718 32.921 18.3356C32.704 18.8993 32.9851 19.5323 33.5488 19.7492C33.712 19.812 33.8745 19.8764 34.0363 19.9424C34.1716 19.9976 34.3113 20.0237 34.4489 20.0237C34.8802 20.0237 35.289 19.7668 35.4621 19.3427C35.6902 18.7835 35.4217 18.1451 34.8625 17.9169Z" fill="#232630"/>
<path d="M31.0829 16.6793L30.9975 16.6581C30.4115 16.5132 29.8181 16.8706 29.673 17.457C29.5277 18.0434 29.8853 18.6365 30.4717 18.7816L30.5533 18.8018C30.6423 18.824 30.7313 18.8346 30.819 18.8346C31.3092 18.8346 31.7554 18.5026 31.8794 18.0054C32.0256 17.4193 31.6691 16.8256 31.0829 16.6793Z" fill="#232630"/>
<path d="M47.7577 45.0345C47.7317 44.8463 47.7038 44.6589 47.6742 44.472C47.5794 43.8754 47.0192 43.4685 46.4225 43.5633C45.8258 43.658 45.4191 44.2184 45.5137 44.8149C45.541 44.9874 45.5668 45.1606 45.5909 45.3344C45.6667 45.8819 46.1354 46.2784 46.6728 46.2784C46.7228 46.2784 46.7733 46.2749 46.8242 46.2679C47.4226 46.1851 47.8405 45.6328 47.7577 45.0345Z" fill="#232630"/>
<path d="M48.0232 48.4315C48.0113 47.8276 47.5152 47.3454 46.9081 47.3594C46.3042 47.3712 45.8242 47.8705 45.8362 48.4745C45.8395 48.6492 45.8413 48.8243 45.8413 48.9998C45.8413 49.6039 46.331 50.0936 46.935 50.0936C47.5391 50.0936 48.0288 49.6039 48.0288 48.9998C48.0288 48.81 48.0269 48.6205 48.0232 48.4315Z" fill="#232630"/>
<path d="M46.938 41.1415C46.8857 40.9588 46.8317 40.777 46.776 40.5961C46.5983 40.0189 45.986 39.6952 45.4088 39.8727C44.8316 40.0505 44.5077 40.6626 44.6854 41.2399C44.7368 41.4068 44.7866 41.5746 44.8348 41.743C44.9722 42.2234 45.41 42.5363 45.8859 42.5363C45.9855 42.5362 46.0867 42.5226 46.1872 42.4938C46.7679 42.3277 47.1041 41.7223 46.938 41.1415Z" fill="#232630"/>
<path d="M31.5158 23.8884C31.337 23.8212 31.1573 23.7563 30.9766 23.6935C30.406 23.4952 29.7826 23.797 29.5844 24.3676C29.3861 24.9382 29.6878 25.5615 30.2584 25.7598C30.4221 25.8167 30.5847 25.8755 30.7467 25.9363C30.8733 25.9839 31.0033 26.0064 31.131 26.0064C31.5737 26.0064 31.9903 25.7357 32.1551 25.2969C32.3676 24.7314 32.0814 24.1008 31.5158 23.8884Z" fill="#232630"/>
<path d="M38.4132 27.9127C38.2662 27.7906 38.1178 27.6703 37.9683 27.5517C37.4948 27.1765 36.8069 27.2564 36.4318 27.7298C36.0567 28.2033 36.1364 28.8911 36.6099 29.2663C36.7463 29.3743 36.8814 29.4839 37.0154 29.5953C37.2197 29.765 37.4673 29.8477 37.7137 29.8477C38.0276 29.8477 38.3393 29.7133 38.5556 29.4529C38.9416 28.9883 38.8778 28.2986 38.4132 27.9127Z" fill="#232630"/>
<path d="M45.5718 37.4015C45.4936 37.2274 45.4137 37.0544 45.332 36.8823C45.0727 36.3365 44.4202 36.1042 43.8748 36.3636C43.3291 36.6228 43.0969 37.2751 43.356 37.8208C43.4311 37.9789 43.5045 38.138 43.5765 38.2981C43.7587 38.7035 44.1574 38.9438 44.5748 38.9438C44.7246 38.9438 44.8769 38.9129 45.0224 38.8475C45.5734 38.6 45.8193 37.9526 45.5718 37.4015Z" fill="#232630"/>
<path d="M35.1373 25.6132C34.9723 25.5167 34.8063 25.4221 34.6391 25.3297C34.1106 25.0372 33.445 25.2286 33.1525 25.7572C32.8601 26.2858 33.0516 26.9513 33.5801 27.2438C33.7319 27.3278 33.8826 27.4136 34.0324 27.5012C34.206 27.6028 34.3961 27.6512 34.5838 27.6512C34.9595 27.6512 35.3254 27.4575 35.5288 27.1097C35.8339 26.5883 35.6585 25.9182 35.1373 25.6132Z" fill="#232630"/>
<path d="M41.2777 30.7012C41.1517 30.5577 41.0242 30.4159 40.8953 30.2755C40.4867 29.8305 39.7948 29.8013 39.3499 30.2099C38.9051 30.6185 38.8757 31.3104 39.2843 31.7552C39.4024 31.8837 39.519 32.0137 39.6344 32.1449C39.8507 32.391 40.1528 32.5167 40.4565 32.5167C40.7129 32.5167 40.9703 32.4271 41.178 32.2446C41.6317 31.846 41.6764 31.155 41.2777 30.7012Z" fill="#232630"/>
<path d="M43.6749 33.8922C43.5721 33.7315 43.4675 33.5722 43.3615 33.414C43.025 32.9124 42.3455 32.7784 41.8439 33.115C41.3424 33.4515 41.2084 34.131 41.5449 34.6326C41.6424 34.7778 41.7383 34.9242 41.8328 35.0718C42.0416 35.3979 42.3944 35.5759 42.7549 35.5759C42.9568 35.5759 43.161 35.52 43.3437 35.4031C43.8523 35.0773 44.0006 34.4008 43.6749 33.8922Z" fill="#232630"/>
</g>
<defs>
<clipPath id="clip0">
<rect width="56" height="56" fill="white"/>
</clipPath>
</defs>
</svg>
