<svg width="56" height="56" viewBox="0 0 56 56" fill="none" xmlns="http://www.w3.org/2000/svg">
<path d="M53.5938 20.635V10.7219C53.5938 8.36981 51.6802 6.4563 49.3281 6.4563H41.5791C39.2178 6.4563 37.2969 8.37736 37.2969 10.7385V11.7063C37.2969 12.3104 37.7865 12.8 38.3906 12.8H46.9219C47.1028 12.8 47.25 12.9473 47.25 13.1282V20.4577H3.50459C1.57216 20.4577 0 22.0299 0 23.9623C0 25.5112 1.0103 26.8277 2.40625 27.2896V36.7752C2.40625 41.9673 6.28294 46.2706 11.2937 46.9438L10.5609 47.6766C10.1338 48.1037 10.1338 48.7962 10.5609 49.2234C10.7745 49.437 11.0544 49.5437 11.3343 49.5437C11.6142 49.5437 11.8942 49.4368 12.1077 49.2234L14.2951 47.036H41.7048L43.8922 49.2234C44.1058 49.437 44.3857 49.5437 44.6656 49.5437C44.9455 49.5437 45.2255 49.4368 45.439 49.2234C45.8661 48.7962 45.8662 48.1037 45.439 47.6766L44.7062 46.9438C49.7171 46.2706 53.5938 41.9673 53.5938 36.7752V27.2896C54.9897 26.8277 56 25.5112 56 23.9623C56 22.4135 54.9897 21.097 53.5938 20.635ZM46.9219 10.6125H39.4881C39.5535 9.51596 40.4663 8.6438 41.5791 8.6438H49.3281C50.474 8.6438 51.4062 9.576 51.4062 10.7219V20.4563H49.4375V13.1282C49.4375 11.7411 48.309 10.6125 46.9219 10.6125ZM8.09375 22.6452H26.9062V36.9484L26.752 36.8685C25.3405 36.1365 23.655 36.1365 22.241 36.8696L22.2333 36.8736C21.4557 37.2766 20.5278 37.2754 19.7513 36.8699C19.0462 36.5016 18.2723 36.3175 17.4987 36.3175C16.7309 36.3175 15.9634 36.4989 15.2643 36.8615C15.2632 36.862 15.2528 36.8674 15.2516 36.868C14.4718 37.2724 13.541 37.273 12.7607 36.87C12.7591 36.8692 12.7577 36.8685 12.7562 36.8677C11.3446 36.1356 9.65913 36.1356 8.24731 36.8676L8.09375 36.9471V22.6452ZM2.1875 23.9622C2.1875 23.2361 2.77834 22.6452 3.50459 22.6452H5.90625V25.2793H3.50459C2.77834 25.2793 2.1875 24.6885 2.1875 23.9622ZM51.406 36.7752C51.4062 41.2267 47.7846 44.8483 43.333 44.8483H12.6669C8.21537 44.8483 4.59375 41.2267 4.59375 36.7752V27.4669H5.90625V38.6465C5.90625 39.0468 6.11877 39.4248 6.46078 39.6328C6.8028 39.8408 7.23603 39.8557 7.59205 39.6714L9.25433 38.8094C10.0342 38.4051 10.965 38.4044 11.7451 38.8074C11.7467 38.8081 11.7482 38.809 11.7497 38.8098C13.1614 39.5417 14.8469 39.5417 16.2552 38.8115C16.2563 38.811 16.2667 38.8056 16.2679 38.8049C17.042 38.4036 17.9655 38.4051 18.7385 38.8087C20.1467 39.5442 21.8295 39.5467 23.2424 38.8142L23.2501 38.8103C24.0312 38.4053 24.9639 38.4054 25.7449 38.8103L27.4074 39.6724C27.5733 39.7586 27.7561 39.8012 27.9386 39.8012C28.1474 39.8012 28.356 39.7453 28.5386 39.6344C28.8809 39.4265 29.0935 39.0484 29.0935 38.6478V27.4669H51.406V36.7752ZM52.4954 25.2794H29.0938V22.6453H52.4954C53.2217 22.6453 53.8125 23.2362 53.8125 23.9624C53.8125 24.6886 53.2217 25.2794 52.4954 25.2794Z" fill="#232630"/>
<path d="M33.9745 40.3838H33.9141C33.31 40.3838 32.8203 40.8735 32.8203 41.4775C32.8203 42.0816 33.31 42.5713 33.9141 42.5713H33.9745C34.5786 42.5713 35.0683 42.0816 35.0683 41.4775C35.0683 40.8735 34.5786 40.3838 33.9745 40.3838Z" fill="#232630"/>
<path d="M47.8063 32.9865C47.2022 32.9865 46.7125 33.4761 46.7125 34.0802C46.7125 37.556 43.8848 40.3838 40.4089 40.3838H37.3516C36.7475 40.3838 36.2578 40.8735 36.2578 41.4776C36.2578 42.0816 36.7475 42.5713 37.3516 42.5713H40.4089C45.0909 42.5713 48.9 38.7622 48.9 34.0802C48.9 33.4761 48.4104 32.9865 47.8063 32.9865Z" fill="#232630"/>
<path d="M37.6313 16.8078C37.0601 16.6111 36.4378 16.9152 36.2413 17.4865L36.0636 18.0037C35.8673 18.5749 36.1712 19.1972 36.7425 19.3936C36.8603 19.4342 36.9801 19.4533 37.0981 19.4533C37.5521 19.4533 37.9764 19.1683 38.1323 18.7148L38.31 18.1977C38.5065 17.6264 38.2026 17.0042 37.6313 16.8078Z" fill="#232630"/>
<path d="M38.8774 13.1875C38.306 12.9911 37.6838 13.2951 37.4874 13.8663L37.3097 14.3836C37.1134 14.9548 37.4172 15.5771 37.9885 15.7735C38.1063 15.814 38.2261 15.8332 38.3441 15.8332C38.7982 15.8332 39.2224 15.5482 39.3784 15.0947L39.5562 14.5775C39.7525 14.0062 39.4486 13.3839 38.8774 13.1875Z" fill="#232630"/>
<path d="M40.9609 16.9797C40.3569 16.9797 39.8672 17.4694 39.8672 18.0735V18.6204C39.8672 19.2244 40.3569 19.7141 40.9609 19.7141C41.565 19.7141 42.0547 19.2244 42.0547 18.6204V18.0735C42.0547 17.4694 41.565 16.9797 40.9609 16.9797Z" fill="#232630"/>
<path d="M40.9609 13.1516C40.3569 13.1516 39.8672 13.6413 39.8672 14.2454V14.7922C39.8672 15.3963 40.3569 15.886 40.9609 15.886C41.565 15.886 42.0547 15.3963 42.0547 14.7922V14.2454C42.0547 13.6413 41.565 13.1516 40.9609 13.1516Z" fill="#232630"/>
<path d="M45.8764 18.0036L45.6987 17.4865C45.5022 16.9153 44.8799 16.6111 44.3087 16.8077C43.7375 17.0042 43.4336 17.6264 43.6301 18.1977L43.8078 18.7148C43.9637 19.1683 44.3879 19.4533 44.842 19.4533C44.96 19.4533 45.0799 19.4341 45.1976 19.3936C45.7689 19.1973 46.0727 18.5749 45.8764 18.0036Z" fill="#232630"/>
<path d="M44.6304 14.3836L44.4526 13.8664C44.2562 13.2951 43.6342 12.9914 43.0627 13.1876C42.4914 13.3839 42.1876 14.0062 42.3839 14.5775L42.5616 15.0948C42.7176 15.5482 43.1418 15.8333 43.596 15.8333C43.7139 15.8333 43.8339 15.814 43.9516 15.7735C44.5228 15.5772 44.8267 14.9549 44.6304 14.3836Z" fill="#232630"/>
</svg>
