<svg width="20" height="16" viewBox="0 0 20 16" fill="none" xmlns="http://www.w3.org/2000/svg">
<path d="M19.1651 4.06008L17.0251 10.8201C16.8651 11.3001 16.4451 11.6201 15.9451 11.6201H7.68511C7.20511 11.6201 6.74511 11.3201 6.58511 10.88L3.44512 2.42009H1.60511C1.16511 2.42009 0.805115 2.06009 0.805115 1.62009C0.805115 1.18009 1.16511 0.820088 1.60511 0.820088H3.98511C4.32511 0.820088 4.62512 1.04008 4.74512 1.36008L8.00512 10.0001H15.6051L17.3051 4.60007H7.88511C7.44511 4.60007 7.08511 4.24007 7.08511 3.80007C7.08511 3.36007 7.44511 3.00007 7.88511 3.00007H18.4051C18.6651 3.00007 18.9051 3.14006 19.0451 3.34006C19.2051 3.54006 19.2451 3.82008 19.1651 4.06008ZM8.08511 12.6601C7.74511 12.6601 7.40511 12.8001 7.16511 13.0401C6.92511 13.2801 6.78511 13.6201 6.78511 13.9601C6.78511 14.3001 6.92511 14.64 7.16511 14.8801C7.40511 15.1201 7.74511 15.2601 8.08511 15.2601C8.42511 15.2601 8.76511 15.1201 9.00511 14.8801C9.24512 14.64 9.38511 14.3001 9.38511 13.9601C9.38511 13.6201 9.24512 13.2801 9.00511 13.0401C8.76511 12.8001 8.42511 12.6601 8.08511 12.6601ZM15.2651 12.6601C14.9251 12.6601 14.5851 12.8001 14.3451 13.0401C14.1051 13.2801 13.9651 13.6201 13.9651 13.9601C13.9651 14.3001 14.1051 14.64 14.3451 14.8801C14.5851 15.1201 14.9251 15.2601 15.2651 15.2601C15.6051 15.2601 15.9451 15.1201 16.1851 14.8801C16.4251 14.64 16.5651 14.3001 16.5651 13.9601C16.5651 13.6201 16.4251 13.2801 16.1851 13.0401C15.9451 12.8001 15.6051 12.6601 15.2651 12.6601Z" fill="white"/>
</svg>
