<svg width="20" height="16" viewBox="0 0 20 16" fill="none" xmlns="http://www.w3.org/2000/svg">
<path d="M19.1652 4.06008L17.0252 10.8201C16.8652 11.3001 16.4452 11.6201 15.9452 11.6201H7.68517C7.20517 11.6201 6.74517 11.3201 6.58517 10.88L3.44518 2.42009H1.60518C1.16518 2.42009 0.805176 2.06009 0.805176 1.62009C0.805176 1.18009 1.16518 0.820088 1.60518 0.820088H3.98517C4.32517 0.820088 4.62518 1.04008 4.74518 1.36008L8.00518 10.0001H15.6052L17.3052 4.60007H7.88517C7.44517 4.60007 7.08517 4.24007 7.08517 3.80007C7.08517 3.36007 7.44517 3.00007 7.88517 3.00007H18.4052C18.6652 3.00007 18.9052 3.14006 19.0452 3.34006C19.2052 3.54006 19.2452 3.82008 19.1652 4.06008ZM8.08517 12.6601C7.74517 12.6601 7.40517 12.8001 7.16517 13.0401C6.92517 13.2801 6.78517 13.6201 6.78517 13.9601C6.78517 14.3001 6.92517 14.64 7.16517 14.8801C7.40517 15.1201 7.74517 15.2601 8.08517 15.2601C8.42517 15.2601 8.76518 15.1201 9.00518 14.8801C9.24518 14.64 9.38517 14.3001 9.38517 13.9601C9.38517 13.6201 9.24518 13.2801 9.00518 13.0401C8.76518 12.8001 8.42517 12.6601 8.08517 12.6601ZM15.2652 12.6601C14.9252 12.6601 14.5852 12.8001 14.3452 13.0401C14.1052 13.2801 13.9652 13.6201 13.9652 13.9601C13.9652 14.3001 14.1052 14.64 14.3452 14.8801C14.5852 15.1201 14.9252 15.2601 15.2652 15.2601C15.6052 15.2601 15.9452 15.1201 16.1852 14.8801C16.4252 14.64 16.5652 14.3001 16.5652 13.9601C16.5652 13.6201 16.4252 13.2801 16.1852 13.0401C15.9452 12.8001 15.6052 12.6601 15.2652 12.6601Z" fill="#232630"/>
</svg>
