<svg width="38" height="38" viewBox="0 0 38 38" fill="none" xmlns="http://www.w3.org/2000/svg">
<path d="M19.0104 0.599976C8.85035 0.599976 0.610352 8.83998 0.610352 19C0.610352 29.16 8.85035 37.4 19.0104 37.4C29.1704 37.4 37.4104 29.16 37.4104 19C37.4104 8.83998 29.1704 0.599976 19.0104 0.599976ZM19.0104 34.2C10.6104 34.2 3.81035 27.4 3.81035 19C3.81035 10.6 10.6104 3.79998 19.0104 3.79998C27.4104 3.79998 34.2104 10.6 34.2104 19C34.2104 27.4 27.4104 34.2 19.0104 34.2ZM25.1304 22.84C25.7704 23.48 25.7704 24.48 25.1304 25.12C24.8104 25.44 24.4104 25.6 24.0104 25.6C23.6104 25.6 23.2103 25.44 22.8903 25.12L17.9304 20.1599C17.6104 19.8399 17.4503 19.44 17.4503 19.04V9.52C17.4503 8.64 18.1703 7.92 19.0503 7.92C19.9303 7.92 20.6503 8.64 20.6503 9.52V18.4L25.1304 22.84Z" fill="#232630"/>
</svg>
