<svg width="56" height="56" viewBox="0 0 56 56" fill="none" xmlns="http://www.w3.org/2000/svg">
<g clip-path="url(#clip0)">
<path d="M28 25.7578C27.3959 25.7578 26.9062 26.2475 26.9062 26.8516V51.4411C26.9062 52.0452 27.3959 52.5349 28 52.5349C28.6041 52.5349 29.0938 52.0451 29.0938 51.4411V26.8516C29.0938 26.2475 28.6041 25.7578 28 25.7578Z" fill="#232630"/>
<path d="M45.4501 28.4375H34.8516C34.2475 28.4375 33.7578 28.9273 33.7578 29.5312C33.7578 30.1352 34.2475 30.625 34.8516 30.625H45.4501C46.0542 30.625 46.5439 30.1352 46.5439 29.5312C46.5439 28.9273 46.0542 28.4375 45.4501 28.4375Z" fill="#232630"/>
<path d="M32.0503 28.4375H32.0391C31.435 28.4375 30.9453 28.9273 30.9453 29.5312C30.9453 30.1352 31.435 30.625 32.0391 30.625H32.0503C32.6544 30.625 33.1441 30.1352 33.1441 29.5312C33.1441 28.9273 32.6544 28.4375 32.0503 28.4375Z" fill="#232630"/>
<path d="M45.4501 35H34.8516C34.2475 35 33.7578 35.4898 33.7578 36.0938C33.7578 36.6977 34.2475 37.1875 34.8516 37.1875H45.4501C46.0542 37.1875 46.5439 36.6977 46.5439 36.0938C46.5439 35.4898 46.0542 35 45.4501 35Z" fill="#232630"/>
<path d="M32.0503 35H32.0391C31.435 35 30.9453 35.4898 30.9453 36.0938C30.9453 36.6977 31.435 37.1875 32.0391 37.1875H32.0503C32.6544 37.1875 33.1441 36.6977 33.1441 36.0938C33.1441 35.4898 32.6544 35 32.0503 35Z" fill="#232630"/>
<path d="M45.4501 41.5625H34.8516C34.2475 41.5625 33.7578 42.0523 33.7578 42.6562C33.7578 43.2602 34.2475 43.75 34.8516 43.75H45.4501C46.0542 43.75 46.5439 43.2602 46.5439 42.6562C46.5439 42.0523 46.0542 41.5625 45.4501 41.5625Z" fill="#232630"/>
<path d="M32.0503 41.5625H32.0391C31.435 41.5625 30.9453 42.0523 30.9453 42.6562C30.9453 43.2602 31.435 43.75 32.0391 43.75H32.0503C32.6544 43.75 33.1441 43.2602 33.1441 42.6562C33.1441 42.0523 32.6544 41.5625 32.0503 41.5625Z" fill="#232630"/>
<path d="M45.4501 48.125H34.8516C34.2475 48.125 33.7578 48.6148 33.7578 49.2188C33.7578 49.8227 34.2475 50.3125 34.8516 50.3125H45.4501C46.0542 50.3125 46.5439 49.8227 46.5439 49.2188C46.5439 48.6148 46.0542 48.125 45.4501 48.125Z" fill="#232630"/>
<path d="M32.0503 48.125H32.0391C31.435 48.125 30.9453 48.6148 30.9453 49.2188C30.9453 49.8227 31.435 50.3125 32.0391 50.3125H32.0503C32.6544 50.3125 33.1441 49.8227 33.1441 49.2188C33.1441 48.6148 32.6544 48.125 32.0503 48.125Z" fill="#232630"/>
<path d="M21.1493 28.4375H10.5508C9.9467 28.4375 9.45703 28.9273 9.45703 29.5312C9.45703 30.1352 9.9467 30.625 10.5508 30.625H21.1493C21.7534 30.625 22.2431 30.1352 22.2431 29.5312C22.2431 28.9273 21.7534 28.4375 21.1493 28.4375Z" fill="#232630"/>
<path d="M23.9605 28.4375H23.9492C23.3451 28.4375 22.8555 28.9273 22.8555 29.5312C22.8555 30.1352 23.3451 30.625 23.9492 30.625H23.9605C24.5646 30.625 25.0542 30.1352 25.0542 29.5312C25.0542 28.9273 24.5646 28.4375 23.9605 28.4375Z" fill="#232630"/>
<path d="M21.1493 35H10.5508C9.9467 35 9.45703 35.4898 9.45703 36.0938C9.45703 36.6977 9.9467 37.1875 10.5508 37.1875H21.1493C21.7534 37.1875 22.2431 36.6977 22.2431 36.0938C22.2431 35.4898 21.7534 35 21.1493 35Z" fill="#232630"/>
<path d="M23.9605 35H23.9492C23.3451 35 22.8555 35.4898 22.8555 36.0938C22.8555 36.6977 23.3451 37.1875 23.9492 37.1875H23.9605C24.5646 37.1875 25.0542 36.6977 25.0542 36.0938C25.0542 35.4898 24.5646 35 23.9605 35Z" fill="#232630"/>
<path d="M21.1493 41.5625H10.5508C9.9467 41.5625 9.45703 42.0523 9.45703 42.6562C9.45703 43.2602 9.9467 43.75 10.5508 43.75H21.1493C21.7534 43.75 22.2431 43.2602 22.2431 42.6562C22.2431 42.0523 21.7534 41.5625 21.1493 41.5625Z" fill="#232630"/>
<path d="M23.9605 41.5625H23.9492C23.3451 41.5625 22.8555 42.0523 22.8555 42.6562C22.8555 43.2602 23.3451 43.75 23.9492 43.75H23.9605C24.5646 43.75 25.0542 43.2602 25.0542 42.6562C25.0542 42.0523 24.5646 41.5625 23.9605 41.5625Z" fill="#232630"/>
<path d="M21.1493 48.125H10.5508C9.9467 48.125 9.45703 48.6148 9.45703 49.2188C9.45703 49.8227 9.9467 50.3125 10.5508 50.3125H21.1493C21.7534 50.3125 22.2431 49.8227 22.2431 49.2188C22.2431 48.6148 21.7534 48.125 21.1493 48.125Z" fill="#232630"/>
<path d="M23.9605 48.125H23.9492C23.3451 48.125 22.8555 48.6148 22.8555 49.2188C22.8555 49.8227 23.3451 50.3125 23.9492 50.3125H23.9605C24.5646 50.3125 25.0542 49.8227 25.0542 49.2188C25.0542 48.6148 24.5646 48.125 23.9605 48.125Z" fill="#232630"/>
<path d="M49 22.6463H45.9175L47.1554 14.1456C47.178 13.9903 47.1664 13.834 47.1242 13.6865C47.1667 13.626 47.2098 13.5657 47.2509 13.5051C49.7909 9.76598 50.0805 5.58534 50.0917 5.40914C50.1165 5.01386 49.9258 4.63597 49.5928 4.42127C49.2599 4.20656 48.8369 4.18862 48.4871 4.37434C48.3558 4.44413 45.8712 5.78134 43.5887 8.1725C43.213 3.91595 41.3294 0.686219 41.2407 0.536484C41.0438 0.203984 40.6861 0 40.2997 0C40.2994 0 40.2991 0 40.2989 0C39.912 0.00021875 39.5542 0.204859 39.3577 0.537906C39.2699 0.686875 37.4138 3.88139 37.0278 8.10031C34.7375 5.72775 32.2408 4.43395 32.1086 4.36636C31.7587 4.18742 31.3395 4.21028 31.011 4.42586C30.6824 4.64144 30.4947 5.01681 30.5193 5.40903C30.5305 5.58512 30.82 9.76587 33.3601 13.505C33.4014 13.5657 33.4444 13.626 33.4868 13.6864C33.4446 13.8339 33.433 13.9902 33.4556 14.1455L34.6935 22.6462H28.7078C28.9577 22.1337 29.0982 21.5585 29.0982 20.951C29.0982 19.8578 28.6432 18.8694 27.9136 18.1632C28.6433 17.4571 29.0982 16.4688 29.0982 15.3756C29.0982 14.2814 28.6425 13.2923 27.9116 12.5861C28.6425 11.8788 29.0982 10.8888 29.0982 9.79387C29.0982 7.65013 27.3542 5.90614 25.2105 5.90614H9.79398C7.65023 5.90625 5.90625 7.65034 5.90625 9.79398C5.90625 11.17 6.6255 12.3806 7.70722 13.0716C6.60253 14.1189 5.9115 15.5984 5.9115 17.2372V19.0894C5.9115 20.4319 6.3758 21.6673 7.1505 22.6462H7C6.39592 22.6462 5.90625 23.1359 5.90625 23.74V54.9062C5.90625 55.5102 6.39592 56 7 56H49C49.6041 56 50.0938 55.5102 50.0938 54.9062V23.7401C50.0938 23.136 49.6041 22.6463 49 22.6463ZM43.5203 11.7015C43.5753 11.649 43.6259 11.5903 43.6704 11.5247C44.7983 9.86431 46.2861 8.54525 47.4779 7.6487C47.1321 8.98177 46.5185 10.6903 45.4414 12.2759C45.3004 12.4834 45.1504 12.6902 44.9932 12.8942H43.3312C43.4081 12.4945 43.4711 12.0967 43.5203 11.7015ZM44.8085 15.0817L43.7071 22.645H36.9039L35.8025 15.0817H44.8085ZM40.3015 3.70584C40.8623 5.17103 41.4654 7.28733 41.4668 9.61603C41.4675 10.6757 41.3445 11.775 41.1005 12.8941H39.5146C39.2692 11.776 39.1449 10.6773 39.1441 9.61811C39.1426 7.28908 39.7428 5.17169 40.3015 3.70584ZM33.1202 7.59938C34.3192 8.47831 35.8249 9.78666 36.9601 11.4578C36.9964 11.5113 37.0373 11.5595 37.0809 11.6045C37.1323 12.0316 37.1995 12.4616 37.2831 12.8942H35.6176C35.4604 12.6902 35.3103 12.4834 35.1694 12.2759C34.079 10.6705 33.4636 8.93911 33.1202 7.59938ZM9.79398 8.09375H25.2105C26.148 8.09375 26.9107 8.85653 26.9107 9.79398C26.9107 10.7314 26.148 11.4942 25.2105 11.4942H23.9365H22.5707H11.6545H9.79398C8.85653 11.4942 8.09375 10.7315 8.09375 9.79398C8.09375 8.85653 8.85653 8.09375 9.79398 8.09375ZM13.3011 19.257H23.9365H25.2168C26.1509 19.257 26.9107 20.0169 26.9107 20.951C26.9107 21.8851 26.1508 22.6449 25.2168 22.6449H23.9365C23.9315 22.6449 23.9267 22.6455 23.9216 22.6457C23.9166 22.6457 23.9118 22.6449 23.9067 22.6449H11.6546C9.69412 22.6449 8.09911 21.0499 8.09911 19.0894V17.2372C8.09911 15.2766 9.69412 13.6817 11.6546 13.6817H22.5708H23.9366H25.2106H25.2168C26.1509 13.6817 26.9107 14.4417 26.9107 15.3756C26.9107 16.3096 26.1508 17.0695 25.2168 17.0695H23.9365H13.3011C12.697 17.0695 12.2073 17.5592 12.2073 18.1632C12.2073 18.7673 12.697 19.257 13.3011 19.257ZM47.9062 53.8125H8.09375V24.8338H47.9062V53.8125Z" fill="#232630"/>
</g>
<defs>
<clipPath id="clip0">
<rect width="56" height="56" fill="white"/>
</clipPath>
</defs>
</svg>
