<svg width="38" height="28" viewBox="0 0 38 28" fill="none" xmlns="http://www.w3.org/2000/svg">
<path d="M36.9701 8.07997L30.2101 0.879966C29.8901 0.559966 29.4901 0.359995 29.0501 0.359995H8.97014C8.53014 0.359995 8.09013 0.559966 7.81013 0.879966L1.05012 8.07997C0.450119 8.71997 0.490133 9.68001 1.09013 10.32L17.8901 27.12C18.2101 27.44 18.6101 27.6 19.0101 27.6C19.4501 27.6 19.8501 27.44 20.1301 27.12L36.9301 10.32C37.5701 9.72001 37.5701 8.71997 36.9701 8.07997ZM11.5701 10.4L14.5301 19.04L5.89013 10.4H11.5701ZM20.3701 3.59999L22.9301 7.59999H15.0501L17.6101 3.59999H20.3701ZM19.0101 23.72V23.64L14.5301 10.4H23.4901L19.0101 23.64V23.72ZM26.4501 10.4H32.1701L23.5301 19.04L26.4501 10.4ZM32.2901 7.59999H26.2101L23.6501 3.59999H28.3301L32.2901 7.59999ZM9.65012 3.59999H14.3301L11.7701 7.59999H5.69013L9.65012 3.59999Z" fill="#232630"/>
</svg>
