<svg width="38" height="22" viewBox="0 0 38 22" fill="none" xmlns="http://www.w3.org/2000/svg">
<path d="M37.2396 1.71996C37.2396 1.67996 37.2396 1.59995 37.2396 1.55995C37.2396 1.51995 37.2396 1.47993 37.2396 1.43993C37.2396 1.39993 37.1996 1.35997 37.1996 1.27997C37.1996 1.23997 37.1596 1.15996 37.1596 1.11996C37.1596 1.07996 37.1197 1.03994 37.0797 0.999941C37.0396 0.959941 37.0396 0.879932 36.9996 0.839932V0.799941C36.9596 0.759941 36.9596 0.759961 36.9196 0.719961C36.8796 0.679961 36.8396 0.639941 36.7996 0.599941C36.7596 0.559941 36.7197 0.519961 36.6796 0.519961C36.6397 0.479961 36.5996 0.439932 36.5596 0.439932C36.5196 0.399932 36.4796 0.399951 36.4396 0.359951C36.3996 0.319951 36.3596 0.319971 36.3196 0.279971C36.2796 0.279971 36.1996 0.239932 36.1596 0.239932C36.1196 0.239932 36.0796 0.199941 35.9996 0.199941C35.9596 0.199941 35.8796 0.199941 35.8396 0.199941C35.7996 0.199941 35.7596 0.199941 35.7196 0.199941H2.11959C2.07959 0.199941 2.03962 0.199941 1.99962 0.199941C1.95962 0.199941 1.87961 0.199941 1.83961 0.199941C1.79961 0.199941 1.7596 0.239932 1.6796 0.239932C1.6396 0.239932 1.55959 0.279971 1.51959 0.279971C1.47959 0.279971 1.43962 0.319951 1.39962 0.359951C1.35962 0.399951 1.3196 0.399932 1.2796 0.439932C1.2396 0.479932 1.19963 0.479961 1.15963 0.519961C1.11963 0.559961 1.07961 0.599941 1.03961 0.599941C0.999609 0.639941 0.95959 0.679961 0.91959 0.719961C0.87959 0.759961 0.879609 0.759941 0.839609 0.799941V0.839932C0.799609 0.879932 0.759629 0.959941 0.759629 0.999941C0.719629 1.03994 0.7196 1.07996 0.6796 1.11996C0.6396 1.15996 0.639609 1.19997 0.639609 1.27997C0.639609 1.31997 0.599619 1.35993 0.599619 1.43993C0.599619 1.47993 0.599619 1.51995 0.599619 1.55995C0.599619 1.59995 0.599619 1.67996 0.599619 1.71996V1.75995V20.16C0.599619 21.04 1.31962 21.76 2.19962 21.76H35.7996C36.6796 21.76 37.3996 21.04 37.3996 20.16L37.2396 1.71996C37.2396 1.75996 37.2396 1.71996 37.2396 1.71996ZM30.7996 3.35995L18.8396 12.2399L6.8796 3.35995H30.7996ZM3.63961 18.56V4.95995L17.8796 15.52C18.1596 15.72 18.4796 15.8399 18.8396 15.8399C19.1996 15.8399 19.5196 15.72 19.7996 15.52L34.0396 4.95995V18.56H3.63961Z" fill="#232630"/>
</svg>
