<svg width="28" height="38" viewBox="0 0 28 38" fill="none" xmlns="http://www.w3.org/2000/svg">
<path d="M23.0096 3.75999C20.7296 1.71999 17.5296 0.599976 14.0496 0.599976C10.5696 0.599976 7.36959 1.71999 5.08959 3.75999C2.32959 6.23999 0.8496 9.95999 0.8496 14.56C0.8496 24.6 12.4096 36.4 12.9296 36.88C13.2496 37.2 13.6496 37.36 14.0496 37.36C14.4496 37.36 14.8896 37.2 15.1696 36.88C15.6496 36.4 27.2496 24.6 27.2496 14.56C27.2096 9.95999 25.7696 6.23999 23.0096 3.75999ZM14.0096 33.44C12.9296 32.24 11.2096 30.24 9.52963 27.84C5.92963 22.72 4.00961 18.16 4.00961 14.6C4.00961 4.59998 11.6496 3.79998 14.0096 3.79998C23.2896 3.79998 24.0096 12.08 24.0096 14.6C24.0096 21.64 16.8496 30.32 14.0096 33.44ZM14.0096 7.51997C10.4896 7.51997 7.6496 10.44 7.6496 14C7.6496 17.56 10.4896 20.48 14.0096 20.48C17.5296 20.48 20.3696 17.56 20.3696 14C20.3696 10.4 17.5296 7.51997 14.0096 7.51997ZM14.0096 17.64C12.0496 17.64 10.4496 16 10.4496 13.96C10.4496 11.92 12.0496 10.28 14.0096 10.28C15.9696 10.28 17.5696 11.92 17.5696 13.96C17.5696 16 15.9696 17.64 14.0096 17.64Z" fill="#232630"/>
</svg>
