<svg width="36" height="32" viewBox="0 0 36 32" fill="none" xmlns="http://www.w3.org/2000/svg">
<path d="M34.2901 6.40002C32.6501 2.76002 29.2101 0.400024 25.49 0.400024C21.7701 0.400024 19.37 2.04002 17.97 3.80002C16.57 2.04002 14.17 0.400024 10.45 0.400024C6.73005 0.400024 3.29005 2.76002 1.65005 6.40002C-0.0299519 10.2 0.690046 14.4 3.61005 17.68C10.61 25.56 16.81 31.12 16.8901 31.16C17.2101 31.44 17.57 31.56 17.97 31.56C18.37 31.56 18.73 31.44 19.05 31.16C19.13 31.12 25.29 25.52 32.33 17.68C35.29 14.4 36.0101 10.2 34.2901 6.40002ZM29.97 15.56C24.77 21.36 20.05 25.92 18.01 27.8C15.97 25.88 11.25 21.36 6.05005 15.52C3.97005 13.16 3.45005 10.32 4.61005 7.64001C5.69005 5.20001 8.05004 3.52004 10.49 3.52004C15.25 3.52004 16.33 7.08004 16.45 7.52004C16.61 8.24004 17.25 8.72004 17.97 8.72004C18.69 8.72004 19.33 8.20004 19.53 7.52004C19.65 7.12004 20.7301 3.52004 25.49 3.52004C27.8901 3.52004 30.25 5.16001 31.37 7.64001C32.57 10.36 32.05 13.2 29.97 15.56ZM29.57 10.92C29.61 11.68 29.05 12.36 28.25 12.4C28.21 12.4 28.17 12.4 28.17 12.4C27.45 12.4 26.81 11.84 26.77 11.08C26.61 8.8 25.13 8.44002 24.85 8.40002C24.09 8.28002 23.57 7.60001 23.65 6.84001C23.77 6.08001 24.49 5.56001 25.25 5.64001C26.65 5.84001 29.33 7.20004 29.57 10.92ZM27.65 13.24C27.97 13.56 28.13 13.96 28.13 14.36C28.13 14.8 27.97 15.2 27.65 15.48C27.37 15.8 26.93 15.96 26.53 15.96C26.13 15.96 25.69 15.8 25.41 15.48C25.09 15.2 24.93 14.76 24.93 14.36C24.93 13.96 25.09 13.52 25.41 13.24C25.69 12.96 26.13 12.76 26.53 12.76C26.93 12.8 27.33 12.96 27.65 13.24Z" fill="#232630"/>
</svg>
