<svg width="56" height="56" viewBox="0 0 56 56" fill="none" xmlns="http://www.w3.org/2000/svg">
<path d="M47.6117 29.4001C47.145 29.4001 46.6784 29.2134 46.305 28.8867L28.0117 11.0134L9.71837 28.8867C8.9717 29.5867 7.80503 29.5868 7.05836 28.8401C6.35836 28.0934 6.35838 26.9267 7.10504 26.1801L26.705 7.04672C27.4517 6.34672 28.5717 6.34672 29.3184 7.04672L48.9184 26.1801C49.665 26.8801 49.6651 28.0934 48.9651 28.8401C48.5917 29.2134 48.0784 29.4001 47.6117 29.4001ZM43.5051 47.6001V29.3534C43.5051 28.3267 42.6651 27.4867 41.6384 27.4867C40.6117 27.4867 39.7717 28.3267 39.7717 29.3534V45.7334H33.9384V35.7467C33.9384 34.3934 32.8184 33.2734 31.4651 33.2734H24.5117C23.1584 33.2734 22.0384 34.3934 22.0384 35.7467V45.7334H16.205V29.3534C16.205 28.3267 15.365 27.4867 14.3384 27.4867C13.3117 27.4867 12.4717 28.3267 12.4717 29.3534V47.6001C12.4717 48.6267 13.3117 49.4667 14.3384 49.4667H23.905C24.9317 49.4667 25.7717 48.6267 25.7717 47.6001V37.0068H30.205V47.6001C30.205 48.6267 31.045 49.4667 32.0717 49.4667H41.6384C42.7117 49.4667 43.5051 48.6267 43.5051 47.6001Z" fill="#232630"/>
</svg>
