<svg width="48" height="48" viewBox="0 0 48 48" fill="none" xmlns="http://www.w3.org/2000/svg">
<path d="M11.9167 44H36.0833C40.4483 44 44 40.4483 44 36.0833V11.9167C44 7.55167 40.4483 4 36.0833 4H11.9167C7.55167 4 4 7.55167 4 11.9167V36.0833C4 40.4483 7.55167 44 11.9167 44ZM6.5 11.9167C6.5 8.93 8.93 6.5 11.9167 6.5H36.0833C39.07 6.5 41.5 8.93 41.5 11.9167V36.0833C41.5 39.07 39.07 41.5 36.0833 41.5H11.9167C8.93 41.5 6.5 39.07 6.5 36.0833V11.9167Z" fill="#232630"/>
<path d="M24 34C29.5139 34 34 29.5139 34 24C34 18.4861 29.5139 14 24 14C18.4861 14 14 18.4861 14 24C14 29.5139 18.4861 34 24 34ZM24 16.447C28.1648 16.447 31.553 19.8352 31.553 24C31.553 28.1648 28.1648 31.553 24 31.553C19.8352 31.553 16.447 28.1648 16.447 24C16.447 19.8352 19.8352 16.447 24 16.447Z" fill="#232630"/>
<path d="M34.9991 16C36.7104 16 38 14.7101 38 13C38 11.2167 36.6428 10 35.0009 10C33.2896 10 32 11.2899 32 13C32 14.7798 33.3503 16 34.9991 16ZM35.3063 12.7124C35.8548 13.1987 34.6034 13.7897 34.6034 13.0017C34.6034 12.5311 35.2404 12.6531 35.3063 12.7124Z" fill="#232630"/>
</svg>
