<svg width="56" height="56" viewBox="0 0 56 56" fill="none" xmlns="http://www.w3.org/2000/svg">
<path fill-rule="evenodd" clip-rule="evenodd" d="M14.6311 18.6288C15.2048 18.8185 15.8235 18.5074 16.0128 17.9337C17.7299 12.7405 22.5607 9.25159 28.0342 9.25159C35.0141 9.25159 40.6931 14.9301 40.6931 21.9105C40.6931 27.3053 38.2766 30.5284 36.3352 33.1184C34.9227 35.0021 33.7029 36.6295 33.7029 38.603C33.7029 38.7328 33.7012 38.8615 33.6982 38.9892H29.1279V36.4766C29.1279 35.8724 28.6383 35.3828 28.0342 35.3828C27.4301 35.3828 26.9404 35.8724 26.9404 36.4766V38.9892H22.3698C22.3668 38.8615 22.3651 38.7328 22.3651 38.603C22.3651 36.6291 21.1453 35.0021 19.7328 33.118C18.3028 31.2103 16.6823 29.048 15.8786 25.9757C15.7257 25.3912 15.1275 25.0413 14.5435 25.1943C13.9594 25.3468 13.6095 25.9449 13.7625 26.529C14.6746 30.0166 16.5088 32.4639 17.9828 34.4301C19.209 36.066 20.1776 37.358 20.1776 38.603C20.1776 39.1268 20.1998 39.6378 20.2429 40.1252V49.3768C20.2429 49.4063 20.2451 49.4349 20.2472 49.4636C20.2481 49.4704 20.2476 49.4777 20.2485 49.4845C20.2523 49.5251 20.2587 49.5644 20.2669 49.6037V49.6046C20.6467 51.3862 21.6191 53.0063 23.0059 54.1663C24.4193 55.3489 26.2052 56 28.0342 56C29.8632 56 31.6487 55.3489 33.0625 54.1663C34.4489 53.0063 35.4217 51.3862 35.8011 49.6046C35.8011 49.6041 35.8015 49.6037 35.8015 49.6033C35.8096 49.5644 35.8156 49.5251 35.8199 49.4845C35.8203 49.4777 35.8203 49.4704 35.8208 49.4636C35.8229 49.4345 35.825 49.4059 35.825 49.3764V40.1252C35.8682 39.6378 35.8908 39.1268 35.8908 38.603C35.8908 37.358 36.8594 36.066 38.0856 34.4301C40.109 31.7307 42.8806 28.0342 42.8806 21.9105C42.8806 13.724 36.2202 7.06409 28.0342 7.06409C21.6152 7.06409 15.95 11.1562 13.9359 17.2471C13.7462 17.8204 14.0577 18.4391 14.6311 18.6288ZM28.0342 53.8125C25.8104 53.8125 23.8049 52.4675 22.8547 50.4702H33.2137C32.2631 52.4675 30.2576 53.8125 28.0342 53.8125ZM33.638 48.2827H22.4304V45.8234H33.638V48.2827ZM33.638 43.6359H22.4304V41.1767H33.638V43.6359Z" fill="#232630"/>
<path fill-rule="evenodd" clip-rule="evenodd" d="M28.0352 5.10175C28.6393 5.10175 29.1289 4.61212 29.1289 4.008V1.09375C29.1289 0.489624 28.6393 0 28.0352 0C27.431 0 26.9414 0.489624 26.9414 1.09375V4.008C26.9414 4.61212 27.431 5.10175 28.0352 5.10175Z" fill="#232630"/>
<path fill-rule="evenodd" clip-rule="evenodd" d="M7.21875 23.0042H10.133C10.7371 23.0042 11.2267 22.5145 11.2267 21.9104C11.2267 21.3063 10.7371 20.8167 10.133 20.8167H7.21875C6.61462 20.8167 6.125 21.3063 6.125 21.9104C6.125 22.5145 6.61462 23.0042 7.21875 23.0042Z" fill="#232630"/>
<path fill-rule="evenodd" clip-rule="evenodd" d="M33.0428 24.1201C33.0428 23.516 32.5532 23.0264 31.9491 23.0264H24.1211C23.517 23.0264 23.0273 23.516 23.0273 24.1201C23.0273 24.7242 23.517 25.2139 24.1211 25.2139H26.9413V27.7265C26.9413 28.3306 27.431 28.8203 28.0351 28.8203C28.6392 28.8203 29.1288 28.3306 29.1288 27.7265V25.2139H31.9491C32.5532 25.2139 33.0428 24.7242 33.0428 24.1201Z" fill="#232630"/>
<path fill-rule="evenodd" clip-rule="evenodd" d="M14.6038 10.0248C14.8174 10.2385 15.0973 10.3453 15.3771 10.3453C15.657 10.3453 15.9368 10.2385 16.1504 10.0248C16.5777 9.5976 16.5777 8.90503 16.1504 8.47821L14.0898 6.4176C13.6626 5.99036 12.97 5.99036 12.5428 6.4176C12.116 6.84442 12.116 7.53699 12.5428 7.96423L14.6038 10.0248Z" fill="#232630"/>
<path fill-rule="evenodd" clip-rule="evenodd" d="M12.5626 38.4782C12.8425 38.4782 13.1223 38.3714 13.3359 38.1578L15.3965 36.0972C15.8238 35.6699 15.8238 34.9778 15.3965 34.5505C14.9693 34.1233 14.2767 34.1233 13.8499 34.5505L11.7889 36.6111C11.362 37.0384 11.362 37.731 11.7889 38.1578C12.0025 38.3714 12.2823 38.4782 12.5626 38.4782Z" fill="#232630"/>
<path fill-rule="evenodd" clip-rule="evenodd" d="M40.6954 10.3453C40.9752 10.3453 41.2551 10.2385 41.4687 10.0249L43.5293 7.96426C43.9565 7.53701 43.9565 6.84444 43.5293 6.4172C43.1025 5.98995 42.4099 5.99038 41.9827 6.4172L39.9221 8.47781C39.4948 8.90505 39.4948 9.59762 39.9216 10.0249C40.1352 10.2385 40.4155 10.3453 40.6954 10.3453Z" fill="#232630"/>
<path fill-rule="evenodd" clip-rule="evenodd" d="M40.6759 34.5505C40.2487 34.9774 40.2487 35.6699 40.6759 36.0972L42.7365 38.1578C42.9501 38.3714 43.23 38.4782 43.5098 38.4782C43.7897 38.4782 44.0695 38.3714 44.2831 38.1578C44.7104 37.731 44.7104 37.0384 44.2831 36.6111L42.2225 34.5505C41.7953 34.1233 41.1027 34.1233 40.6759 34.5505Z" fill="#232630"/>
<path fill-rule="evenodd" clip-rule="evenodd" d="M45.9375 23.0042H48.8517C49.4559 23.0042 49.9455 22.5145 49.9455 21.9104C49.9455 21.3063 49.4559 20.8167 48.8517 20.8167H45.9375C45.3334 20.8167 44.8438 21.3063 44.8438 21.9104C44.8438 22.5145 45.3334 23.0042 45.9375 23.0042Z" fill="#232630"/>
<path fill-rule="evenodd" clip-rule="evenodd" d="M28.0352 31.0078C27.4327 31.0078 26.9414 31.4991 26.9414 32.1016C26.9414 32.704 27.4327 33.1953 28.0352 33.1953C28.6376 33.1953 29.1289 32.704 29.1289 32.1016C29.1289 31.4991 28.6376 31.0078 28.0352 31.0078Z" fill="#232630"/>
<path fill-rule="evenodd" clip-rule="evenodd" d="M15.375 21.9104C15.375 21.308 14.8837 20.8167 14.2812 20.8167C13.6784 20.8167 13.1875 21.308 13.1875 21.9104C13.1875 22.5128 13.6784 23.0042 14.2812 23.0042C14.8837 23.0042 15.375 22.5128 15.375 21.9104Z" fill="#232630"/>
</svg>
