<svg width="38" height="38" viewBox="0 0 38 38" fill="none" xmlns="http://www.w3.org/2000/svg">
<path d="M24.5301 37.4C19.5701 37.4 11.7701 35.76 9.85009 34.4C9.41009 34.08 9.17011 33.6 9.17011 33.08V17.44C9.17011 16.96 9.41011 16.48 9.77011 16.2C9.89011 16.12 12.6901 13.92 15.6101 12.28C19.2501 10.28 21.7701 7.48 22.3701 5.72C23.0901 3.56 24.1301 0.599976 27.4101 0.599976C28.9701 0.599976 30.2501 1.47998 30.9301 2.99998C32.2901 6.11998 30.8501 10.44 28.4501 13.84C30.0501 14.2 32.0501 14.72 33.2501 15.08C35.4501 15.76 36.8901 17.36 37.2101 19.32C37.4901 21.32 36.4901 23.36 34.3701 24.92C32.8101 29.12 30.1301 35.76 28.1701 36.84C27.4101 37.24 26.0901 37.4 24.5301 37.4ZM12.3701 32.12C15.4101 33.4 24.7701 34.72 26.5301 34.04C27.4501 33.2 29.8101 27.84 31.4501 23.32C31.5701 23 31.7701 22.72 32.0501 22.52C33.3701 21.64 34.0501 20.6 33.9301 19.72C33.8101 19 33.1701 18.4 32.2101 18.08C30.2101 17.44 25.2501 16.36 25.1701 16.36C24.6101 16.24 24.1701 15.84 23.9701 15.28C23.7701 14.72 23.9301 14.12 24.3301 13.72C27.9301 9.84 28.5701 5.87996 27.8901 4.27996C27.6901 3.79996 27.4501 3.79998 27.3301 3.79998C26.5301 3.79998 26.1701 4.35999 25.3301 6.75999C24.3701 9.55999 21.0501 12.92 17.0901 15.08C15.1701 16.12 13.2501 17.52 12.2901 18.24V32.12H12.3701ZM6.05009 33.24V17.28C6.05009 15.84 4.89009 14.68 3.45009 14.68C2.01009 14.68 0.850088 15.84 0.850088 17.28V33.24C0.850088 34.68 2.01009 35.84 3.45009 35.84C4.85009 35.84 6.05009 34.64 6.05009 33.24Z" fill="#232630"/>
</svg>
