<svg width="20" height="18" viewBox="0 0 20 18" fill="none" xmlns="http://www.w3.org/2000/svg">
<path d="M10.0051 11.2199C12.9651 11.2199 15.3851 8.79992 15.3851 5.81992C15.3851 2.83992 12.9651 0.419922 10.0051 0.419922C7.04511 0.419922 4.62512 2.83992 4.62512 5.81992C4.62512 8.79992 7.04511 11.2199 10.0051 11.2199ZM10.0051 1.9999C12.0851 1.9999 13.7851 3.6999 13.7851 5.7999C13.7851 7.8999 12.0851 9.5999 10.0051 9.5999C7.92511 9.5999 6.22512 7.8999 6.22512 5.7999C6.22512 3.6999 7.92511 1.9999 10.0051 1.9999ZM12.5051 11.7399C12.2451 11.6599 11.9451 11.7199 11.7451 11.8999L10.0051 13.3799L8.26511 11.8999C8.04511 11.7199 7.76511 11.6599 7.50512 11.7399C6.38512 12.0999 0.805115 14.0199 0.805115 16.7999C0.805115 17.2399 1.16511 17.5999 1.60511 17.5999H18.4051C18.8451 17.5999 19.2051 17.2399 19.2051 16.7999C19.2051 14.0199 13.6251 12.0999 12.5051 11.7399ZM2.82512 15.9999C3.70512 15.0599 5.82511 14.0199 7.58511 13.4199L9.48511 15.0399C9.78511 15.2999 10.2251 15.2999 10.5251 15.0399L12.4251 13.4199C14.1851 14.0399 16.3051 15.0799 17.1851 15.9999H2.82512Z" fill="white"/>
</svg>
