<svg width="20" height="18" viewBox="0 0 20 18" fill="none" xmlns="http://www.w3.org/2000/svg">
<path d="M10.0052 11.2199C12.9652 11.2199 15.3852 8.79992 15.3852 5.81992C15.3852 2.83992 12.9652 0.419922 10.0052 0.419922C7.04518 0.419922 4.62518 2.83992 4.62518 5.81992C4.62518 8.79992 7.04518 11.2199 10.0052 11.2199ZM10.0052 1.9999C12.0852 1.9999 13.7852 3.6999 13.7852 5.7999C13.7852 7.8999 12.0852 9.5999 10.0052 9.5999C7.92518 9.5999 6.22518 7.8999 6.22518 5.7999C6.22518 3.6999 7.92518 1.9999 10.0052 1.9999ZM12.5052 11.7399C12.2452 11.6599 11.9452 11.7199 11.7452 11.8999L10.0052 13.3799L8.26517 11.8999C8.04517 11.7199 7.76518 11.6599 7.50518 11.7399C6.38518 12.0999 0.805176 14.0199 0.805176 16.7999C0.805176 17.2399 1.16518 17.5999 1.60518 17.5999H18.4052C18.8452 17.5999 19.2052 17.2399 19.2052 16.7999C19.2052 14.0199 13.6252 12.0999 12.5052 11.7399ZM2.82518 15.9999C3.70518 15.0599 5.82517 14.0199 7.58517 13.4199L9.48518 15.0399C9.78518 15.2999 10.2252 15.2999 10.5252 15.0399L12.4252 13.4199C14.1852 14.0399 16.3052 15.0799 17.1852 15.9999H2.82518Z" fill="#232630"/>
</svg>
