<svg width="103" height="19" viewBox="0 0 103 19" fill="none" xmlns="http://www.w3.org/2000/svg">
<path d="M11.5412 11.158H4.64577V15.4277H12.7903V18.75H0.261204V0.834326H12.8153V4.1689H4.64577V7.94644H11.5412V11.158Z" fill="white"/>
<path d="M30.7898 18.75H26.4302L19.9845 7.6019V18.75H15.6V0.834326H19.9845L26.4177 11.9824V0.834326H30.7898V18.75Z" fill="white"/>
<path d="M49.7761 18.75H45.4165L38.9708 7.6019V18.75H34.5863V0.834326H38.9708L45.404 11.9824V0.834326H49.7761V18.75Z" fill="white"/>
<path d="M64.128 15.4031H58.1195L57.0702 18.75H52.3859L59.0564 0.834326H63.1786L69.8992 18.75H65.1898L64.128 15.4031ZM59.1688 12.0685H63.0787L61.1175 5.85464L59.1688 12.0685Z" fill="white"/>
<path d="M86.8743 16.5351C86.1998 17.2734 85.2129 17.8681 83.9138 18.3193C82.6147 18.7705 81.1906 18.996 79.6416 18.996C77.2599 18.996 75.357 18.2783 73.933 16.8427C72.5089 15.4072 71.7469 13.4097 71.647 10.8503L71.6345 9.29995C71.6345 7.53628 71.9509 5.99819 72.5839 4.68569C73.2168 3.36499 74.1203 2.3519 75.2946 1.64644C76.4771 0.932764 77.8428 0.575928 79.3918 0.575928C81.657 0.575928 83.4141 1.08862 84.6633 2.11401C85.9208 3.1312 86.6536 4.65288 86.8618 6.67905H82.6396C82.4897 5.67827 82.165 4.9646 81.6653 4.53804C81.1656 4.11147 80.4578 3.89819 79.5417 3.89819C78.4424 3.89819 77.593 4.35757 76.9934 5.27632C76.3938 6.19507 76.0898 7.50757 76.0815 9.21382V10.2966C76.0815 12.0849 76.3897 13.4302 77.0059 14.3326C77.6305 15.2267 78.609 15.6738 79.9414 15.6738C81.0823 15.6738 81.9318 15.4236 82.4897 14.9232V12.1423H79.4418V9.1769H86.8743V16.5351Z" fill="white"/>
<path d="M101.726 11.158H94.8305V15.4277H102.975V18.75H90.4459V0.834326H103V4.1689H94.8305V7.94644H101.726V11.158Z" fill="white"/>
</svg>
