<svg width="24" height="20" viewBox="0 0 24 20" fill="none" xmlns="http://www.w3.org/2000/svg">
<path d="M16.602 15.5842H7.82351L15.3479 17.3421L22.8723 19.1001L16.602 15.5842Z" fill="white"/>
<path fill-rule="evenodd" clip-rule="evenodd" d="M22.8723 19.1001L16.602 15.5842L14.4073 8.24214L12.2127 0.900095L12.2127 8.13873L6.88296 13.6194L1.55319 19.1001L7.82351 15.5842L15.3479 17.3421L22.8723 19.1001ZM7.82351 15.5842L12.2127 8.13873L16.602 15.5842H7.82351Z" fill="white"/>
<path fill-rule="evenodd" clip-rule="evenodd" d="M12.2127 0.199707L23.4875 19.4501H0.937988L12.2127 0.199707ZM9.83047 5.66794L3.32966 16.7674L6.58006 13.4249L9.83047 5.66794ZM7.93094 12.0358L11.8574 7.99814L11.8574 2.6654L7.93094 12.0358ZM12.568 3.32797L15.428 12.8957L12.568 8.04448V3.32797ZM10.4119 10.4965L3.49655 17.6077L7.56439 15.3267L10.4119 10.4965ZM7.87767 15.9565L3.29719 18.5249L13.3742 17.2407L7.87767 15.9565ZM15.3291 17.6975L7.069 18.7501H19.8346L15.3291 17.6975ZM19.87 14.6744L13.3968 3.62209L14.7295 8.0807L19.87 14.6744ZM21.5185 17.9383L15.2866 9.94467L16.9023 15.3499L21.5185 17.9383ZM15.9847 15.2342H8.44072L12.2127 8.83571L15.9847 15.2342ZM10.8612 15.9342L20.5413 18.1958L16.5079 15.9342H10.8612Z" fill="white"/>
</svg>
