<svg width="16" height="16" viewBox="0 0 16 16" fill="none" xmlns="http://www.w3.org/2000/svg">
<path d="M14.4051 3.4999H1.60511C0.885115 3.4999 0.305115 2.9199 0.305115 2.1999C0.305115 1.4799 0.885115 0.899902 1.60511 0.899902H14.4051C15.1251 0.899902 15.7051 1.4799 15.7051 2.1999C15.7051 2.9199 15.1251 3.4999 14.4051 3.4999ZM15.7051 7.9999C15.7051 7.2799 15.1251 6.6999 14.4051 6.6999H1.60511C0.885115 6.6999 0.305115 7.2799 0.305115 7.9999C0.305115 8.7199 0.885115 9.2999 1.60511 9.2999H14.4051C15.1251 9.2999 15.7051 8.7199 15.7051 7.9999ZM15.7051 13.7999C15.7051 13.0799 15.1251 12.4999 14.4051 12.4999H1.60511C0.885115 12.4999 0.305115 13.0799 0.305115 13.7999C0.305115 14.5199 0.885115 15.0999 1.60511 15.0999H14.4051C15.1251 15.0999 15.7051 14.5199 15.7051 13.7999Z" fill="#232630"/>
</svg>
