<svg width="38" height="31" viewBox="0 0 38 31" fill="none" xmlns="http://www.w3.org/2000/svg">
<path d="M37.2904 7.35991L33.4904 25.6799C33.3703 26.2399 32.8904 26.64 32.3304 26.64C32.2504 26.64 32.1704 26.6399 32.0904 26.5999C31.4504 26.4799 31.0104 25.8399 31.1704 25.1999L34.7304 8.07993L11.8104 3.43999L11.2504 5.99995C11.0904 6.63995 10.4504 7.03997 9.81035 6.91997C9.17035 6.75997 8.77035 6.11993 8.89035 5.47993L9.73035 1.75991C9.89035 1.11991 10.4904 0.719985 11.1304 0.839985L36.4104 5.95991C36.7304 6.03991 37.0104 6.19993 37.1704 6.47993C37.2904 6.71993 37.3703 7.03991 37.2904 7.35991ZM29.8104 29.1999C29.8104 30.0799 29.0904 30.7999 28.2104 30.7999H2.21035C1.33035 30.7999 0.610352 30.0799 0.610352 29.1999V9.59995C0.610352 8.71995 1.33035 7.99995 2.21035 7.99995H28.2104C29.0904 7.99995 29.8104 8.71995 29.8104 9.59995V29.1999ZM3.81035 11.1999V21.0799L10.5704 15.5999C11.0904 15.1599 11.9304 15.16 12.4504 15.64L20.0504 22.3599L23.2104 19.64C23.7304 19.2 24.3304 19.2 24.8504 19.64L26.1704 20.9999V11.1999H3.81035ZM26.2104 27.5999V24.6799L23.9704 22.5599L20.9304 25.2799C20.4104 25.7199 19.6504 25.7199 19.1304 25.2799L11.4104 18.52L3.81035 24.72V27.5999H26.2104ZM19.5704 17.72C20.9304 17.72 22.0104 16.6399 22.0104 15.2799C22.0104 13.9199 20.8904 12.84 19.5704 12.84C18.2104 12.84 17.1304 13.9199 17.1304 15.2799C17.1304 16.6399 18.2104 17.72 19.5704 17.72Z" fill="#232630"/>
</svg>
