<svg width="56" height="56" viewBox="0 0 56 56" fill="none" xmlns="http://www.w3.org/2000/svg">
<path d="M25.2114 32.4333C25.2114 31.5467 24.4647 30.8 23.578 30.8H17.5114C16.6247 30.8 15.878 31.5467 15.878 32.4333V38.5C15.878 39.3867 16.6247 40.1333 17.5114 40.1333H23.578C24.4647 40.1333 25.2114 39.3867 25.2114 38.5V32.4333ZM19.1447 34.0667H21.9447V36.8667H19.1447V34.0667ZM48.9647 18.3866L44.8114 14.1866V9.33334C44.8114 8.30667 43.9714 7.46667 42.8981 7.46667H13.078C12.0514 7.46667 11.1647 8.30667 11.1647 9.33334V14.1866L7.01138 18.3866C6.68471 18.7133 6.49806 19.2268 6.49806 19.6934V24.4533C6.49806 25.48 7.33806 26.1801 8.36473 26.1801H47.5647C48.5914 26.1801 49.4314 25.5266 49.4314 24.4533V19.6934C49.4781 19.1801 49.2914 18.7133 48.9647 18.3866ZM41.0781 11.2V13.5333H14.9447V11.2H41.0781ZM45.7447 22.4H10.278V20.4399L14.1047 16.8H41.918L45.7447 20.4399V22.4ZM46.6781 29.9134V46.6667C46.6781 47.6933 45.8381 48.5333 44.8114 48.5333H38.418C37.3914 48.5333 36.5514 47.7868 36.5514 46.7601V36.8667H32.2114V46.6667C32.2114 47.6933 31.3247 48.5333 30.2981 48.5333H11.2114C10.1847 48.5333 9.29806 47.6933 9.29806 46.6667V29.9134C9.29806 28.8867 10.1381 28.0467 11.1647 28.0467C12.1914 28.0467 13.0314 28.8867 13.0314 29.9134V44.8H28.4314V34.8134C28.4314 33.7867 29.2247 33.1333 30.2514 33.1333H38.3247C39.3514 33.1333 40.0514 33.7867 40.0514 34.8134V44.8H42.8514V29.9134C42.8514 28.8867 43.6914 28.0467 44.718 28.0467C45.7447 28.0467 46.6781 28.8867 46.6781 29.9134Z" fill="#232630"/>
</svg>
