<svg width="37" height="37" viewBox="0 0 37 37" fill="none" xmlns="http://www.w3.org/2000/svg">
<path d="M35.0099 5.60002C34.9699 5.56002 34.9699 5.56004 34.9299 5.52004L30.6499 1.75998C30.0499 1.19998 29.2099 0.920017 28.3299 1.00002C27.5299 1.08002 26.8099 1.39998 26.2499 1.95998C26.2099 1.99998 26.1699 2.04 26.1299 2.08L21.8899 7.40002C20.7699 8.60002 20.81 10.44 21.97 11.6C22.05 11.68 22.1299 11.76 22.2099 11.8L24.37 13.2401C24.21 14.0001 23.0899 16.16 19.1299 20.12C15.1699 24.08 13.0099 25.2 12.2499 25.36L10.8099 23.2C10.7699 23.12 10.6899 23.04 10.6099 22.96C9.44994 21.8 7.60994 21.8 6.40994 22.88L1.08995 27.12C1.04995 27.16 1.00995 27.2001 0.969951 27.2401C-0.230049 28.4401 -0.310049 30.44 0.769951 31.6L4.52994 35.88C4.56994 35.92 4.56994 35.92 4.60994 35.96C5.32994 36.68 6.44995 36.96 7.68995 36.96C9.88995 36.96 12.4099 36.08 13.7299 35.56C16.2899 34.56 21.2899 32.12 26.2499 27.16C29.9299 23.48 32.8899 19.0401 34.6499 14.6401C35.4099 12.6401 37.0899 7.68002 35.0099 5.60002ZM23.97 24.96C16.57 32.36 8.24993 34.4 6.84993 33.68L3.20994 29.52L8.40994 25.4L9.80994 27.52C9.84994 27.56 9.84995 27.6001 9.88995 27.6401C10.3699 28.2401 11.0499 28.56 11.8499 28.6C12.6099 28.64 14.9699 28.76 21.3299 22.4C22.8899 20.84 27.6899 16.04 27.5299 12.92C27.4899 12.12 27.13 11.44 26.57 10.96C26.53 10.92 26.4899 10.88 26.4499 10.88L24.3299 9.48L28.4499 4.28L32.6099 7.92004C33.4099 9.24004 31.37 17.56 23.97 24.96Z" fill="#232630"/>
</svg>
