<svg width="56" height="56" viewBox="0 0 56 56" fill="none" xmlns="http://www.w3.org/2000/svg">
<path d="M51.9531 4.42969C50.7227 4.42969 49.6196 4.98225 48.8768 5.85156H7.12316C6.38028 4.98225 5.27723 4.42969 4.04688 4.42969C1.81541 4.42969 0 6.24509 0 8.47656C0 10.708 1.81541 12.5234 4.04688 12.5234C5.04798 12.5234 5.96466 12.1572 6.67188 11.5528V50.4744C6.67188 51.0785 7.16166 51.5681 7.76562 51.5681C8.36959 51.5681 8.85938 51.0785 8.85938 50.4744V32.373L15.4757 38.9893C15.6893 39.203 15.9692 39.3097 16.2491 39.3097C16.529 39.3097 16.8089 39.203 17.0225 38.9893L24.7256 31.2862L25.8346 32.3951C26.2617 32.8223 26.954 32.8223 27.3815 32.3951C27.8086 31.968 27.8086 31.2755 27.3815 30.8483L26.2655 29.7324L33.2023 22.7957L40.139 29.7324L33.2023 36.6691L32.2305 35.6973C31.8035 35.2702 31.1112 35.2702 30.6836 35.6973C30.2565 36.1244 30.2565 36.8169 30.6836 37.244L32.4288 38.9893C32.6339 39.1944 32.9121 39.3097 33.2022 39.3097C33.4923 39.3097 33.7704 39.1944 33.9756 38.9893L40.5781 32.3869V40.6328H16.9225C16.3185 40.6328 15.8288 41.1225 15.8288 41.7266C15.8288 42.3306 16.3185 42.8203 16.9225 42.8203H40.5781V50.4766C40.5781 51.0806 41.0679 51.5703 41.6719 51.5703C42.2758 51.5703 42.7656 51.0806 42.7656 50.4766V32.6211H45.8281C46.4321 32.6211 46.9219 32.1314 46.9219 31.5273V11.1016H48.8768C49.6197 11.9709 50.7228 12.5234 51.9531 12.5234C54.1846 12.5234 56 10.708 56 8.47656C56 6.24509 54.1846 4.42969 51.9531 4.42969ZM4.04688 10.3359C3.02159 10.3359 2.1875 9.50184 2.1875 8.47656C2.1875 7.45128 3.02159 6.61719 4.04688 6.61719C5.07216 6.61719 5.90625 7.45128 5.90625 8.47656C5.90625 9.50184 5.07216 10.3359 4.04688 10.3359ZM40.5781 27.078L33.9757 20.4755C33.5485 20.0484 32.8561 20.0484 32.4288 20.4755L24.7256 28.1787L23.5512 27.0042C23.124 26.5771 22.4316 26.5771 22.0043 27.0042C21.5772 27.4314 21.5772 28.1239 22.0043 28.5511L23.1857 29.7326L16.2491 36.6693L9.31241 29.7326L16.2491 22.7959L17.6566 24.2036C18.0838 24.6307 18.7762 24.6307 19.2035 24.2036C19.6306 23.7765 19.6306 23.0839 19.2035 22.6567L17.0226 20.4758C16.5954 20.0487 15.903 20.0487 15.4757 20.4758L8.85938 27.0919V17.4818H32.8485C33.4525 17.4818 33.9422 16.9922 33.9422 16.3881C33.9422 15.784 33.4525 15.2943 32.8485 15.2943H8.85938V8.03906H40.5781V27.078ZM44.7344 30.4336H42.7656V11.1016H44.7344V30.4336ZM47.9062 8.91406H42.7656V8.03906H47.9062V8.91406ZM51.9531 10.3359C50.9278 10.3359 50.0938 9.50184 50.0938 8.47656C50.0938 7.45128 50.9278 6.61719 51.9531 6.61719C52.9784 6.61719 53.8125 7.45128 53.8125 8.47656C53.8125 9.50184 52.9784 10.3359 51.9531 10.3359Z" fill="#232630"/>
<path d="M21.342 24.7971L21.3173 24.7721C20.8905 24.3445 20.1981 24.3438 19.7704 24.7705C19.3428 25.1972 19.3421 25.8896 19.7686 26.3173L19.7935 26.3421C20.0072 26.5562 20.2875 26.6633 20.5677 26.6633C20.8473 26.6633 21.1267 26.5568 21.3402 26.3438C21.7678 25.9172 21.7686 25.2247 21.342 24.7971Z" fill="#232630"/>
<path d="M36.4308 28.9591L33.9751 26.5033C33.7699 26.2983 33.4918 26.183 33.2017 26.183C32.9117 26.183 32.6335 26.2983 32.4284 26.5033L29.9727 28.9591C29.5456 29.3863 29.5456 30.0788 29.9727 30.5059L32.4284 32.9616C32.642 33.1752 32.9219 33.282 33.2017 33.282C33.4816 33.282 33.7615 33.1752 33.9751 32.9616L36.4308 30.5059C36.8579 30.0788 36.8579 29.3863 36.4308 28.9591ZM33.2017 30.6414L32.2927 29.7325L33.2017 28.8235L34.1108 29.7325L33.2017 30.6414Z" fill="#232630"/>
<path d="M19.4777 28.9591L17.022 26.5033C16.8168 26.2983 16.5387 26.183 16.2486 26.183C15.9586 26.183 15.6804 26.2983 15.4752 26.5033L13.0196 28.9591C12.5924 29.3863 12.5924 30.0788 13.0196 30.5059L15.4752 32.9616C15.6888 33.1752 15.9687 33.282 16.2486 33.282C16.5285 33.282 16.8084 33.1752 17.022 32.9616L19.4777 30.5059C19.9048 30.0788 19.9048 29.3863 19.4777 28.9591ZM16.2485 30.6413L15.3395 29.7324L16.2485 28.8234L17.1575 29.7324L16.2485 30.6413Z" fill="#232630"/>
<path d="M29.9703 33.4356L29.9519 33.4173C29.5242 32.991 28.8317 32.9918 28.4052 33.4196C27.9787 33.8474 27.9796 34.5398 28.4075 34.9664L28.4258 34.9847C28.6393 35.1975 28.9187 35.3038 29.1981 35.3038C29.4785 35.3038 29.759 35.1966 29.9726 34.9824C30.3991 34.5546 30.3982 33.8622 29.9703 33.4356Z" fill="#232630"/>
<path d="M28.8424 19.7617C28.4152 19.3345 27.7228 19.3345 27.2955 19.7617L24.7181 22.3392L22.1407 19.7617C21.7134 19.3346 21.0211 19.3346 20.5938 19.7617C20.1667 20.1888 20.1667 20.8814 20.5938 21.3086L23.9447 24.6595C24.1583 24.8731 24.4382 24.9799 24.7181 24.9799C24.998 24.9799 25.2779 24.8731 25.4915 24.6595L28.8424 21.3086C29.2695 20.8815 29.2695 20.1889 28.8424 19.7617Z" fill="#232630"/>
<path d="M28.8423 37.6444L25.4914 34.2935C25.0643 33.8665 24.3719 33.8665 23.9447 34.2936L20.5938 37.6445C20.1667 38.0716 20.1667 38.7642 20.5938 39.1914C21.021 39.6185 21.7133 39.6185 22.1407 39.1914L24.7181 36.6138L27.2955 39.1913C27.5091 39.4049 27.789 39.5117 28.0689 39.5117C28.3488 39.5117 28.6287 39.4049 28.8423 39.1913C29.2694 38.7642 29.2694 38.0716 28.8423 37.6444Z" fill="#232630"/>
<path d="M10.7188 45.9603C10.1148 45.9603 9.625 46.45 9.625 47.0541V50.4743C9.625 51.0784 10.1148 51.5681 10.7188 51.5681C11.3227 51.5681 11.8125 51.0784 11.8125 50.4743V47.0541C11.8125 46.4501 11.3227 45.9603 10.7188 45.9603Z" fill="#232630"/>
<path d="M14.2188 45.9603C13.6148 45.9603 13.125 46.45 13.125 47.0541V50.4743C13.125 51.0784 13.6148 51.5681 14.2188 51.5681C14.8227 51.5681 15.3125 51.0784 15.3125 50.4743V47.0541C15.3125 46.4501 14.8227 45.9603 14.2188 45.9603Z" fill="#232630"/>
<path d="M17.7188 45.9603C17.1148 45.9603 16.625 46.45 16.625 47.0541V50.4743C16.625 51.0784 17.1148 51.5681 17.7188 51.5681C18.3227 51.5681 18.8125 51.0784 18.8125 50.4743V47.0541C18.8125 46.4501 18.3227 45.9603 17.7188 45.9603Z" fill="#232630"/>
<path d="M21.2188 45.9603C20.6148 45.9603 20.125 46.45 20.125 47.0541V50.4743C20.125 51.0784 20.6148 51.5681 21.2188 51.5681C21.8227 51.5681 22.3125 51.0784 22.3125 50.4743V47.0541C22.3125 46.4501 21.8227 45.9603 21.2188 45.9603Z" fill="#232630"/>
<path d="M24.7188 45.9603C24.1148 45.9603 23.625 46.45 23.625 47.0541V50.4743C23.625 51.0784 24.1148 51.5681 24.7188 51.5681C25.3227 51.5681 25.8125 51.0784 25.8125 50.4743V47.0541C25.8125 46.4501 25.3227 45.9603 24.7188 45.9603Z" fill="#232630"/>
<path d="M28.2188 45.9603C27.6148 45.9603 27.125 46.45 27.125 47.0541V50.4743C27.125 51.0784 27.6148 51.5681 28.2188 51.5681C28.8227 51.5681 29.3125 51.0784 29.3125 50.4743V47.0541C29.3125 46.4501 28.8227 45.9603 28.2188 45.9603Z" fill="#232630"/>
<path d="M31.7188 45.9603C31.1148 45.9603 30.625 46.45 30.625 47.0541V50.4743C30.625 51.0784 31.1148 51.5681 31.7188 51.5681C32.3227 51.5681 32.8125 51.0784 32.8125 50.4743V47.0541C32.8125 46.4501 32.3227 45.9603 31.7188 45.9603Z" fill="#232630"/>
<path d="M35.2188 45.9603C34.6148 45.9603 34.125 46.45 34.125 47.0541V50.4743C34.125 51.0784 34.6148 51.5681 35.2188 51.5681C35.8227 51.5681 36.3125 51.0784 36.3125 50.4743V47.0541C36.3125 46.4501 35.8227 45.9603 35.2188 45.9603Z" fill="#232630"/>
<path d="M38.7188 45.9603C38.1148 45.9603 37.625 46.45 37.625 47.0541V50.4743C37.625 51.0784 38.1148 51.5681 38.7188 51.5681C39.3227 51.5681 39.8125 51.0784 39.8125 50.4743V47.0541C39.8125 46.4501 39.3227 45.9603 38.7188 45.9603Z" fill="#232630"/>
<path d="M36.5099 15.2943H36.4922C35.8882 15.2943 35.3984 15.784 35.3984 16.3881C35.3984 16.9921 35.8882 17.4818 36.4922 17.4818H36.5099C37.1139 17.4818 37.6037 16.9921 37.6037 16.3881C37.6037 15.784 37.114 15.2943 36.5099 15.2943Z" fill="#232630"/>
<path d="M13.2755 40.6328H13.2578C12.6538 40.6328 12.1641 41.1225 12.1641 41.7266C12.1641 42.3306 12.6538 42.8203 13.2578 42.8203H13.2755C13.8795 42.8203 14.3693 42.3306 14.3693 41.7266C14.3693 41.1225 13.8795 40.6328 13.2755 40.6328Z" fill="#232630"/>
</svg>
