<svg width="48" height="48" viewBox="0 0 48 48" fill="none" xmlns="http://www.w3.org/2000/svg">
<path d="M24.2414 36C30.028 36 27.9647 32.4832 28.4114 31.472C28.4047 30.7168 28.3981 29.9904 28.4247 29.5488C28.7914 29.648 29.6564 30.0688 31.443 31.736C34.2013 34.408 34.9063 36 37.1346 36H41.2363C42.5362 36 43.2129 35.4832 43.5512 35.0496C43.8779 34.6304 44.1979 33.8944 43.8479 32.7488C42.9329 29.9904 37.5963 25.2272 37.2646 24.7248C37.3146 24.632 37.3946 24.5088 37.4363 24.4448H37.433C38.4863 23.1088 42.5062 17.3264 43.0979 15.0128C43.0996 15.0096 43.1012 15.0048 43.1012 15C43.4212 13.944 43.1279 13.2592 42.8246 12.872C42.3679 12.2928 41.6413 12 40.6596 12H36.558C35.1847 12 34.143 12.664 33.6163 13.8752C32.7347 16.0272 30.258 20.4528 28.4014 22.0192C28.3447 19.8 28.3831 18.1056 28.4131 16.8464C28.4731 14.3904 28.6664 12 26.0114 12H19.5648C17.9015 12 16.3099 13.744 18.0332 15.8144C19.5398 17.6288 18.5748 18.64 18.8998 23.6736C17.6332 22.3696 15.3799 18.848 13.7866 14.3472C13.3399 13.1296 12.6632 12.0016 10.7583 12.0016H6.65664C4.99332 12.0016 4 12.872 4 14.3296C4 17.6032 11.5483 36 24.2414 36ZM10.7583 14.4016C11.1199 14.4016 11.1566 14.4016 11.4249 15.1328C13.0566 19.7456 16.7165 26.5712 19.3898 26.5712C21.3981 26.5712 21.3981 24.5952 21.3981 23.8512L21.3965 17.928C21.2865 15.968 20.5432 14.992 20.0548 14.4L25.9014 14.4064C25.9048 14.4336 25.8681 20.9584 25.9181 22.5392C25.9181 24.784 27.7747 26.0704 30.673 23.2544C33.7313 19.9408 35.8463 14.9872 35.9313 14.7856C36.0563 14.4976 36.1646 14.4 36.558 14.4H40.6596H40.6763C40.6746 14.4048 40.6746 14.4096 40.6729 14.4144C40.2979 16.0944 36.5963 21.448 35.358 23.1104C35.338 23.136 35.3197 23.1632 35.3013 23.1904C34.7563 24.0448 34.313 24.9888 35.3763 26.3168H35.378C35.4747 26.4288 35.7263 26.6912 36.093 27.056C37.233 28.1856 41.1429 32.048 41.4896 33.584C41.2596 33.6192 41.0096 33.5936 37.1346 33.6016C36.3096 33.6016 35.6647 32.4176 33.203 30.0336C30.9897 27.9664 29.5531 27.1216 28.2447 27.1216C25.7048 27.1216 25.8898 29.1008 25.9131 31.4944C25.9214 34.0896 25.9048 33.2688 25.9231 33.432C25.7748 33.488 25.3498 33.6 24.2414 33.6C13.6666 33.6 6.77997 17.4864 6.51497 14.4064C6.60664 14.3984 7.86829 14.4032 10.7583 14.4016Z" fill="#232630"/>
</svg>
